<svg xmlns="http://www.w3.org/2000/svg" viewBox="0 0 30 30" width="512px" height="512px">    <path xmlns="http://www.w3.org/2000/svg" fill="#fff" d="M24,4H6C4.895,4,4,4.895,4,6v18c0,1.105,0.895,2,2,2h18c1.105,0,2-0.895,2-2V6C26,4.895,25.105,4,24,4z M22,9h-4.246 l-3.792,13.275c-0.113,0.396-0.459,0.683-0.869,0.721C13.062,22.999,13.03,23,13,23c-0.376,0-0.724-0.212-0.895-0.553L9.382,17H8 c-0.553,0-1-0.448-1-1s0.447-1,1-1h2c0.379,0,0.725,0.214,0.895,0.553l1.851,3.701l3.293-11.528C16.161,7.296,16.554,7,17,7h5 c0.553,0,1,0.448,1,1S22.553,9,22,9z"/></svg>